<svg width="56" height="56" viewBox="0 0 56 56" fill="none" xmlns="http://www.w3.org/2000/svg">
<g filter="url(#filter0_d_392_3600)">
<circle cx="28" cy="24" r="24" fill="white"/>
</g>
<circle cx="28.5" cy="24" r="15.5" stroke="#025CE4"/>
<mask id="mask0_392_3600" style="mask-type:alpha" maskUnits="userSpaceOnUse" x="20" y="25" width="17" height="10">
<path fill-rule="evenodd" clip-rule="evenodd" d="M20.5 26.4961H36.3399V33.8701H20.5V26.4961Z" fill="white" stroke="white"/>
</mask>
<g mask="url(#mask0_392_3600)">
<path fill-rule="evenodd" clip-rule="evenodd" d="M28.421 27.9961C24.16 27.9961 22 28.7281 22 30.1731C22 31.6311 24.16 32.3701 28.421 32.3701C32.681 32.3701 34.84 31.6381 34.84 30.1931C34.84 28.7351 32.681 27.9961 28.421 27.9961ZM28.421 33.8701C26.462 33.8701 20.5 33.8701 20.5 30.1731C20.5 26.8771 25.021 26.4961 28.421 26.4961C30.38 26.4961 36.34 26.4961 36.34 30.1931C36.34 33.4891 31.82 33.8701 28.421 33.8701Z" fill="#025CE4"/>
<path d="M28.421 27.4961C26.2749 27.4961 24.6036 27.6788 23.4521 28.0692C22.3126 28.4555 21.5 29.1213 21.5 30.1731H22.5C22.5 29.7799 22.7674 29.3572 23.7732 29.0162C24.7669 28.6794 26.3061 28.4961 28.421 28.4961V27.4961ZM21.5 30.1731C21.5 31.2287 22.3088 31.9007 23.4508 32.2914C24.6029 32.6856 26.2747 32.8701 28.421 32.8701V31.8701C26.3063 31.8701 24.7676 31.6851 23.7745 31.3453C22.7712 31.002 22.5 30.5754 22.5 30.1731H21.5ZM28.421 32.8701C30.5666 32.8701 32.2374 32.6874 33.3886 32.297C34.5278 31.9106 35.34 31.2448 35.34 30.1931H34.34C34.34 30.5864 34.0727 31.0091 33.0674 31.35C32.0741 31.6868 30.5354 31.8701 28.421 31.8701V32.8701ZM35.34 30.1931C35.34 29.1376 34.5316 28.4656 33.3899 28.0748C32.2382 27.6806 30.5668 27.4961 28.421 27.4961V28.4961C30.5352 28.4961 32.0733 28.6811 33.0661 29.0209C34.0689 29.3641 34.34 29.7906 34.34 30.1931H35.34ZM28.421 33.3701C27.4344 33.3701 25.5176 33.3677 23.8545 32.9248C23.0236 32.7035 22.3007 32.3832 21.7929 31.9354C21.3017 31.5023 21 30.9419 21 30.1731H20C20 31.2528 20.4436 32.0788 21.1315 32.6854C21.8028 33.2774 22.6928 33.6503 23.5972 33.8911C25.4049 34.3725 27.4486 34.3701 28.421 34.3701V33.3701ZM21 30.1731C21 29.477 21.2335 28.9591 21.621 28.5535C22.0204 28.1355 22.6072 27.8131 23.3405 27.5739C24.814 27.0934 26.7244 26.9961 28.421 26.9961V25.9961C26.7176 25.9961 24.6675 26.0893 23.0305 26.6232C22.2086 26.8913 21.4526 27.2822 20.898 27.8627C20.3317 28.4554 20 29.2212 20 30.1731H21ZM28.421 26.9961C29.4076 26.9961 31.3239 26.9985 32.9864 27.4414C33.8171 27.6626 34.5398 27.9829 35.0474 28.4307C35.5384 28.8639 35.84 29.4242 35.84 30.1931H36.84C36.84 29.1135 36.3966 28.2875 35.7089 27.6808C35.0378 27.0888 34.148 26.7159 33.2438 26.4751C31.4366 25.9937 29.3934 25.9961 28.421 25.9961V26.9961ZM35.84 30.1931C35.84 30.8892 35.6066 31.4071 35.2191 31.8128C34.8198 32.2308 34.2332 32.5531 33.5001 32.7922C32.027 33.2728 30.1171 33.3701 28.421 33.3701V34.3701C30.1239 34.3701 32.1735 34.2769 33.8102 33.7429C34.6319 33.4749 35.3877 33.0839 35.9422 32.5035C36.5084 31.9107 36.84 31.145 36.84 30.1931H35.84Z" fill="#025CE4"/>
</g>
<mask id="mask1_392_3600" style="mask-type:alpha" maskUnits="userSpaceOnUse" x="22" y="13" width="13" height="13">
<path fill-rule="evenodd" clip-rule="evenodd" d="M23.1104 14H33.7304V24.6186H23.1104V14Z" fill="white" stroke="white"/>
</mask>
<g mask="url(#mask1_392_3600)">
<path fill-rule="evenodd" clip-rule="evenodd" d="M28.4214 15.4275C26.2804 15.4275 24.5384 17.1685 24.5384 19.3095C24.5314 21.4435 26.2604 23.1835 28.3924 23.1915L28.4214 23.9055V23.1915C30.5614 23.1915 32.3024 21.4495 32.3024 19.3095C32.3024 17.1685 30.5614 15.4275 28.4214 15.4275ZM28.4214 24.6185H28.3894C25.4674 24.6095 23.1004 22.2265 23.1104 19.3065C23.1104 16.3815 25.4924 13.9995 28.4214 13.9995C31.3494 13.9995 33.7304 16.3815 33.7304 19.3095C33.7304 22.2375 31.3494 24.6185 28.4214 24.6185Z" fill="#025CE4"/>
<path d="M24.5384 19.3095L25.0384 19.3112V19.3095H24.5384ZM28.3924 23.1915L28.892 23.1712L28.8726 22.6933L28.3943 22.6915L28.3924 23.1915ZM28.4214 23.9055L27.9218 23.9258L28.9214 23.9055H28.4214ZM28.4214 23.1915V22.6915H27.9214V23.1915H28.4214ZM28.3894 24.6185L28.3878 25.1185H28.3894V24.6185ZM23.1104 19.3065L23.6104 19.3082V19.3065H23.1104ZM28.4214 14.9275C26.0044 14.9275 24.0384 16.8922 24.0384 19.3095H25.0384C25.0384 17.4448 26.5564 15.9275 28.4214 15.9275V14.9275ZM24.0384 19.3079C24.0305 21.718 25.9825 23.6825 28.3905 23.6915L28.3943 22.6915C26.5383 22.6846 25.0323 21.1691 25.0384 19.3112L24.0384 19.3079ZM27.8928 23.2118L27.9218 23.9258L28.921 23.8852L28.892 23.1712L27.8928 23.2118ZM28.9214 23.9055V23.1915H27.9214V23.9055H28.9214ZM28.4214 23.6915C30.8377 23.6915 32.8024 21.7255 32.8024 19.3095H31.8024C31.8024 21.1735 30.2851 22.6915 28.4214 22.6915V23.6915ZM32.8024 19.3095C32.8024 16.8925 30.8376 14.9275 28.4214 14.9275V15.9275C30.2852 15.9275 31.8024 17.4446 31.8024 19.3095H32.8024ZM28.4214 24.1185H28.3894V25.1185H28.4214V24.1185ZM28.3909 24.1185C25.7451 24.1104 23.6013 21.952 23.6104 19.3082L22.6104 19.3048C22.5994 22.5011 25.1897 25.1087 28.3878 25.1185L28.3909 24.1185ZM23.6104 19.3065C23.6104 16.6579 25.7683 14.4995 28.4214 14.4995V13.4995C25.2165 13.4995 22.6104 16.1051 22.6104 19.3065H23.6104ZM28.4214 14.4995C31.0731 14.4995 33.2304 16.6575 33.2304 19.3095H34.2304C34.2304 16.1055 31.6256 13.4995 28.4214 13.4995V14.4995ZM33.2304 19.3095C33.2304 21.9614 31.0732 24.1185 28.4214 24.1185V25.1185C31.6255 25.1185 34.2304 22.5137 34.2304 19.3095H33.2304Z" fill="#025CE4"/>
</g>
<defs>
<filter id="filter0_d_392_3600" x="0" y="0" width="56" height="56" filterUnits="userSpaceOnUse" color-interpolation-filters="sRGB">
<feFlood flood-opacity="0" result="BackgroundImageFix"/>
<feColorMatrix in="SourceAlpha" type="matrix" values="0 0 0 0 0 0 0 0 0 0 0 0 0 0 0 0 0 0 127 0" result="hardAlpha"/>
<feOffset dy="4"/>
<feGaussianBlur stdDeviation="2"/>
<feComposite in2="hardAlpha" operator="out"/>
<feColorMatrix type="matrix" values="0 0 0 0 0 0 0 0 0 0 0 0 0 0 0 0 0 0 0.25 0"/>
<feBlend mode="normal" in2="BackgroundImageFix" result="effect1_dropShadow_392_3600"/>
<feBlend mode="normal" in="SourceGraphic" in2="effect1_dropShadow_392_3600" result="shape"/>
</filter>
</defs>
</svg>
