<svg width="70" height="134" viewBox="0 0 70 134" fill="none" xmlns="http://www.w3.org/2000/svg">
<path d="M-1.40158 75.1047C0.269203 65.9098 -14.4425 47.1688 -12.9497 42.6393C-12.9155 39.8848 -4.45494 34.5308 -0.194224 31.0863C8.23654 24.2705 19.363 19.6149 25.1498 18.5151C32.5194 18.3399 43.3083 11.887 47.7815 8.6824C54.7721 1.13982 59.7429 -0.16546 61.3545 0.124724C72.5909 0.162735 70.4904 10.7805 68.0356 16.0846C62.3266 29.4173 41.1909 32.8957 34.9972 32.1862C30.0423 31.6186 18.4435 36.0839 13.2635 38.3875C10.6071 39.132 4.11209 43.1872 1.1966 45.1217L16.451 45.4624C21.7351 44.6683 47.4281 52.9366 59.0857 65.6882C68.4119 75.8894 63.3015 82.3207 59.5806 84.2611C49.1719 89.6239 34.0417 77.351 29.0447 71.4977C25.0471 66.815 13.5631 59.6804 8.32086 56.6985C5.54746 54.6549 -0.353132 50.6221 -1.2055 51.4827C-1.69845 51.9804 -0.867564 52.5029 0.156771 52.8319C11.9078 61.2508 13.5224 79.0969 14.6456 86.036C14.7696 92.0222 13.3207 103.108 11.9185 111.798C10.8128 127.748 11.7135 127.134 7.12994 131.467C-0.471026 136.235 -5.83714 131.174 -9.04008 126.904C-13.8247 120.525 -12.1995 109.911 -10.2965 105.467C-4.35513 94.7092 -1.9859 81.1347 -1.40158 75.1047Z" fill="#61B379"/>
</svg>
