<svg width="263" height="242" viewBox="0 0 263 242" fill="none" xmlns="http://www.w3.org/2000/svg">
<path d="M-0.361749 89.3841C8.96317 69.5485 -13.0856 18.0601 -6.9744 8.69781C-5.23777 2.47096 17.1598 -4.50797 28.8898 -9.71978C52.1003 -20.0325 80.1181 -23.8 93.8941 -22.7621C110.7 -18.6606 139.035 -26.7109 151.102 -31.2488C171.487 -44.0892 183.538 -44.0153 187.015 -42.3733C212.455 -35.4279 201.299 -12.6274 192.541 -2.09534C171.573 24.6603 121.582 19.6476 107.974 14.2575C97.0877 9.94535 68.1141 12.993 54.9881 15.0558C48.5201 15.1229 31.359 20.3559 23.5869 22.964L57.9495 33.0486C70.402 34.4732 123.644 68.9111 142.38 104.95C157.369 133.781 141.914 145.249 132.314 147.379C105.496 153.188 78.6027 116.115 70.8049 99.7886C64.5667 86.7273 42.8407 63.5346 32.7576 53.5709C27.7038 47.2426 16.7618 34.4936 14.3119 35.9253C12.895 36.7533 14.4631 38.4456 16.5862 39.8171C38.1437 66.086 31.0526 107.549 29.4178 123.974C26.0928 137.627 16.1318 161.887 7.7197 180.741C-4.39411 216.245 -1.98266 215.4 -14.9797 222.431C-35.0763 228.605 -44.1879 213.851 -48.8739 202.211C-55.8739 184.822 -45.7975 161.74 -38.8081 152.821C-18.8641 132.047 -5.31819 102.704 -0.361749 89.3841Z" fill="#61B379"/>
<path d="M6.10146 116.3C19.8132 87.4392 15.3782 58.1797 11.4467 47.1575C10.5811 44.8836 11.4934 45.5859 12.0578 46.2213C21.7506 60.8261 20.4662 75.4753 21.1947 86.6319C21.9231 97.7885 10.4291 127.67 9.20689 129.542C7.98465 131.415 -2.83072 154.529 -5.95917 158.095C-9.08761 161.66 -18.8211 187.617 -18.9277 189.417C-19.0342 191.216 -24.0973 206.336 -21.9495 191.183C-21.7276 189.617 -18.1479 173.904 -18.0413 172.104C-17.9347 170.305 -11.0383 152.376 6.10146 116.3Z" fill="#A5D7A2"/>
<path d="M99.8114 103.235C101.771 105.796 109.045 113.089 111.338 115.031C93.9256 78.2979 74.9487 65.6437 70.1219 60.3568C65.295 55.0699 46.9292 41.4796 34.7973 37.5659C22.6654 33.6523 24.7901 35.3063 27.1671 37.3919C29.0687 39.0604 33.2162 40.8064 40.3472 47.0632C53.7405 53.1353 71.3472 70.5003 75.6043 75.6847C83.6378 85.468 97.3616 100.034 99.8114 103.235Z" fill="#A5D7A2"/>
<path d="M117.329 -2.55555C121.792 -2.84692 146.611 -5.9613 158.138 -9.02942C154.252 -6.759 152.24 -3.26634 141.733 0.556802C131.227 4.37994 111.987 5.36067 102.074 4.04255C90.7719 2.53967 91.4896 -0.196166 48.988 4.3715C45.5668 4.73918 24.2304 9.57329 16.0619 11.4511C15.9454 9.66606 21.1937 7.68011 23.8324 6.91028C56.826 -5.99991 101.71 -1.53574 117.329 -2.55555Z" fill="#A5D7A2"/>
</svg>
