<svg width="34" height="19" viewBox="0 0 34 19" fill="none" xmlns="http://www.w3.org/2000/svg">
<path d="M23.9015 11.6298C22.0687 12.8539 21.3642 18.3317 20.3493 18.8244C19.8782 19.2679 17.5582 18.7481 16.2635 18.6083C13.7015 18.3317 11.0534 17.259 9.89943 16.4857C8.6368 15.301 5.7416 14.577 4.45182 14.3631C2.00804 14.4421 0.955852 13.8366 0.735232 13.524C-1.13834 11.6679 1.00676 10.2825 2.31351 9.82178C5.52098 8.58772 9.64487 11.5001 10.5613 12.6354C11.2944 13.5437 13.9894 14.7251 15.2452 15.2023C15.8154 15.5182 17.5872 15.9263 18.4018 16.0908L15.9071 13.524C14.8888 12.7835 11.9868 7.20557 12.1905 3.20723C12.3534 0.00854684 14.2948 -0.198775 15.2452 0.0973988C17.8926 0.936558 18.3509 5.42853 18.1981 7.20557C18.0759 8.62721 18.7921 11.6811 19.1654 13.0303C19.2842 13.8201 19.5902 15.4491 19.8782 15.4491C20.0448 15.4491 19.994 15.2271 19.8782 15.0048C19.3343 11.6975 22.0789 8.5219 23.0632 7.20557C24.0537 6.20911 26.1689 4.64006 27.8714 3.45404C30.751 1.03528 30.4964 0.987246 31.9953 1.03528C34.0725 1.50916 34.1154 3.21775 33.93 4.44128C33.653 6.26902 31.588 7.73211 30.5189 8.14346C27.7075 8.91943 25.0179 10.7427 23.9015 11.6298Z" fill="#025CE4"/>
<path d="M25.7764 9.02695C23.097 10.801 21.9874 13.5113 21.7675 14.6447C21.7269 14.8813 21.6829 14.7761 21.666 14.694C21.5645 12.9692 22.4272 11.7866 22.9346 10.801C23.4421 9.81541 25.9794 7.84426 26.1824 7.7457C26.3854 7.64715 28.5167 6.21807 28.9734 6.07023C29.4302 5.92239 31.6122 4.19764 31.7137 4.04981C31.8152 3.90197 33.0331 2.86712 32.069 4.04981C31.9694 4.17199 30.8511 5.33105 30.7496 5.47889C30.6481 5.62672 29.1257 6.80941 25.7764 9.02695Z" fill="#4F7EDD" fill-opacity="0.5"/>
<path d="M16.8958 5.47889C16.8552 5.1635 16.5914 4.18122 16.4899 3.90197C16.1346 7.89354 17.1496 9.91397 17.3018 10.6039C17.454 11.2938 18.3675 13.3635 19.2302 14.2998C20.0928 15.2361 19.9914 14.9897 19.8899 14.694C19.8087 14.4575 19.5346 14.1027 19.2302 13.2156C18.3675 12.0329 17.7138 9.67979 17.6063 9.02695C17.4033 7.79498 16.9466 5.87312 16.8958 5.47889Z" fill="#4F7EDD" fill-opacity="0.5"/>
<path d="M9.94359 13.6099C9.53762 13.4127 7.2033 12.4436 6.03613 12.1315C6.49285 12.1315 6.84807 11.9344 7.96449 12.1315C9.08091 12.3286 10.8171 13.2019 11.6182 13.807C12.5317 14.4969 12.3287 14.694 16.2869 16.4187C16.6055 16.5576 18.7227 17.2072 19.5346 17.4536C19.4534 17.6113 18.8919 17.5193 18.6212 17.4536C15.069 16.9115 11.3645 14.2998 9.94359 13.6099Z" fill="#4F7EDD" fill-opacity="0.5"/>
</svg>
