<svg width="105" height="160" viewBox="0 0 105 160" fill="none" xmlns="http://www.w3.org/2000/svg">
<path d="M-1.40158 94.1047C0.269203 84.9098 -14.4425 66.1688 -12.9497 61.6393C-12.9155 58.8848 -4.45494 53.5308 -0.194224 50.0863C8.23654 43.2705 19.363 38.6149 25.1498 37.5151C32.5194 37.3399 43.3083 30.887 47.7815 27.6824C54.7721 20.1398 59.7429 18.8345 61.3545 19.1247C72.5909 19.1627 70.4904 29.7805 68.0356 35.0846C62.3266 48.4173 41.1909 51.8957 34.9972 51.1862C30.0423 50.6186 18.4435 55.0839 13.2635 57.3875C10.6071 58.132 4.11209 62.1872 1.1966 64.1217L16.451 64.4624C21.7351 63.6683 47.4281 71.9366 59.0857 84.6882C68.4119 94.8894 63.3015 101.321 59.5806 103.261C49.1719 108.624 34.0417 96.351 29.0447 90.4977C25.0471 85.815 13.5631 78.6804 8.32086 75.6985C5.54746 73.6549 -0.353132 69.6221 -1.2055 70.4827C-1.69845 70.9804 -0.867564 71.5029 0.156771 71.8319C11.9078 80.2508 13.5224 98.0969 14.6456 105.036C14.7696 111.022 13.3207 122.108 11.9185 130.798C10.8128 146.748 11.7135 146.134 7.12994 150.467C-0.471026 155.235 -5.83714 150.174 -9.04008 145.904C-13.8247 139.525 -12.1995 128.911 -10.2965 124.467C-4.35513 113.709 -1.9859 100.135 -1.40158 94.1047Z" fill="#61B379"/>
<path d="M4.20362 104.463C6.69392 91.0685 1.66726 79.5212 -1.15735 75.4219C-1.76251 74.5823 -1.30998 74.7701 -1.00807 74.969C4.58104 79.9038 5.65433 86.0736 7.17453 90.5832C8.69474 95.0928 7.2294 108.661 6.93084 109.567C6.63229 110.473 4.70631 121.182 3.8079 122.996C2.90949 124.81 1.73996 136.569 1.89289 137.321C2.04583 138.073 1.61446 144.856 0.841553 138.383C0.761704 137.714 0.517392 130.852 0.364456 130.1C0.21152 129.347 1.09073 121.206 4.20362 104.463Z" fill="#A5D7A2"/>
<path d="M41.3669 88.7008C42.4541 89.5373 46.2472 91.732 47.4038 92.2768C36.2155 79.0928 27.0163 75.9897 24.4503 74.3494C21.8842 72.7091 12.8343 69.1529 7.41 68.8874C1.98572 68.6218 3.04163 69.0668 4.24866 69.6615C5.21427 70.1372 7.11327 70.3959 10.7343 72.1799C16.9142 73.1938 26.0643 78.3871 28.3845 80.0483C32.763 83.1833 40.0079 87.6552 41.3669 88.7008Z" fill="#A5D7A2"/>
<path d="M37.0106 43.2317C38.8166 42.6172 48.6972 38.5849 53.1086 36.0449C51.7569 37.4097 51.31 39.0699 47.4013 41.8074C43.4927 44.545 35.6764 47.081 31.4499 47.6374C26.6309 48.2717 26.6273 47.0665 9.62356 53.6567C8.25482 54.1871 -0.00336083 58.541 -3.16197 60.219C-3.4052 59.4975 -1.46101 58.0986 -0.45851 57.4894C11.7171 48.5206 30.6898 45.3825 37.0106 43.2317Z" fill="#A5D7A2"/>
</svg>
