<svg width="308" height="167" viewBox="0 0 308 167" fill="none" xmlns="http://www.w3.org/2000/svg">
<path d="M235.5 118C217.441 130.421 210.5 186 200.5 191C195.859 195.5 173 190.225 160.243 188.807C135 186 108.909 175.117 97.5385 167.27C85.0979 155.25 56.5716 147.904 43.8635 145.734C19.7851 146.535 9.41795 140.391 7.2442 137.219C-11.216 118.387 9.91959 104.33 22.7949 99.6555C54.3979 87.1343 95.0303 116.684 104.06 128.204C111.283 137.42 137.836 149.407 150.21 154.248C155.828 157.454 173.285 161.594 181.312 163.263L156.731 137.219C146.699 129.706 118.105 73.1105 120.112 32.5417C121.717 0.0867195 140.846 -2.01685 150.21 0.988246C176.295 9.50268 180.81 55.08 179.305 73.1105C178.101 87.535 185.157 118.521 188.836 132.211C190.007 140.224 193.021 156.752 195.859 156.752C197.5 156.752 197 154.5 195.859 152.245C190.5 118.688 217.542 86.4665 227.241 73.1105C237 63 257.84 47.0798 274.616 35.046C302.987 10.5044 300.479 10.017 315.248 10.5044C335.715 15.3125 336.137 32.6486 334.31 45.063C331.581 63.6078 311.235 78.4529 300.701 82.6267C273 90.5 246.5 109 235.5 118Z" fill="#61B379"/>
<path d="M243.5 91.5C217.1 109.5 206.167 137 204 148.5C203.6 150.9 203.167 149.833 203 149C202 131.5 210.5 119.5 215.5 109.5C220.5 99.5 245.5 79.5 247.5 78.5C249.5 77.5 270.5 63 275 61.5C279.5 60 301 42.5 302 41C303 39.5 315 29 305.5 41C304.519 42.2397 293.5 54 292.5 55.5C291.5 57 276.5 69 243.5 91.5Z" fill="#A5D7A2"/>
<path d="M156 55.5C155.6 52.3 153 42.3333 152 39.5C148.5 80 158.5 100.5 160 107.5C161.5 114.5 170.5 135.5 179 145C187.5 154.5 186.5 152 185.5 149C184.7 146.6 182 143 179 134C170.5 122 164.06 98.1239 163 91.5C161 79 156.5 59.5 156 55.5Z" fill="#A5D7A2"/>
<path d="M87.5 138C83.5 136 60.5 126.167 49 123C53.5 123 57 121 68 123C79 125 96.1065 133.861 104 140C113 147 111 149 150 166.5C153.139 167.909 174 174.5 182 177C181.2 178.6 175.667 177.667 173 177C138 171.5 101.5 145 87.5 138Z" fill="#A5D7A2"/>
</svg>
