<svg width="24" height="19" viewBox="0 0 24 19" fill="none" xmlns="http://www.w3.org/2000/svg">
<path d="M23.3525 2.35651C22.5175 2.72651 21.6205 2.97651 20.6775 3.08951C21.6505 2.5073 22.3784 1.59098 22.7255 0.511511C21.8113 1.0545 20.8108 1.43671 19.7675 1.64151C19.0659 0.892376 18.1365 0.395837 17.1238 0.228985C16.1111 0.0621324 15.0716 0.234302 14.1667 0.718763C13.2619 1.20322 12.5423 1.97287 12.1196 2.90821C11.697 3.84356 11.595 4.89226 11.8295 5.89151C9.97717 5.79851 8.16511 5.31706 6.51091 4.47842C4.85671 3.63977 3.39733 2.46267 2.22748 1.02351C1.82748 1.71351 1.59748 2.51351 1.59748 3.36551C1.59704 4.13251 1.78592 4.88775 2.14736 5.56424C2.50881 6.24073 3.03165 6.81755 3.66948 7.24351C2.92976 7.21997 2.20636 7.02009 1.55948 6.66051V6.72051C1.55941 7.79625 1.93152 8.83889 2.61267 9.67151C3.29382 10.5041 4.24206 11.0754 5.29648 11.2885C4.61027 11.4742 3.89082 11.5016 3.19248 11.3685C3.48998 12.2941 4.06948 13.1035 4.84985 13.6834C5.63022 14.2633 6.5724 14.5847 7.54448 14.6025C5.89432 15.8979 3.85637 16.6006 1.75848 16.5975C1.38687 16.5976 1.01556 16.5759 0.646484 16.5325C2.77596 17.9017 5.25482 18.6283 7.78648 18.6255C16.3565 18.6255 21.0415 11.5275 21.0415 5.37151C21.0415 5.17151 21.0365 4.96951 21.0275 4.76951C21.9388 4.11048 22.7254 3.29441 23.3505 2.35951L23.3525 2.35651Z" fill="#024BB9"/>
</svg>
