<svg width="23" height="23" viewBox="0 0 23 23" fill="none" xmlns="http://www.w3.org/2000/svg">
<path fill-rule="evenodd" clip-rule="evenodd" d="M7.11148 0.462484C8.28448 0.408484 8.65848 0.396484 11.6465 0.396484C14.6345 0.396484 15.0085 0.409484 16.1805 0.462484C17.3525 0.515484 18.1525 0.702484 18.8525 0.973484C19.5855 1.25048 20.2505 1.68348 20.8005 2.24348C21.3605 2.79248 21.7925 3.45648 22.0685 4.19048C22.3405 4.89048 22.5265 5.69048 22.5805 6.86048C22.6345 8.03548 22.6465 8.40948 22.6465 11.3965C22.6465 14.3845 22.6335 14.7585 22.5805 15.9315C22.5275 17.1015 22.3405 17.9015 22.0685 18.6015C21.7925 19.3356 21.3598 20.0007 20.8005 20.5505C20.2505 21.1105 19.5855 21.5425 18.8525 21.8185C18.1525 22.0905 17.3525 22.2765 16.1825 22.3305C15.0085 22.3845 14.6345 22.3965 11.6465 22.3965C8.65848 22.3965 8.28448 22.3835 7.11148 22.3305C5.94148 22.2775 5.14148 22.0905 4.44148 21.8185C3.70741 21.5424 3.0423 21.1097 2.49248 20.5505C1.93286 20.0012 1.4998 19.3364 1.22348 18.6025C0.952484 17.9025 0.766484 17.1025 0.712484 15.9325C0.658484 14.7575 0.646484 14.3835 0.646484 11.3965C0.646484 8.40848 0.659484 8.03448 0.712484 6.86248C0.765484 5.69048 0.952484 4.89048 1.22348 4.19048C1.50021 3.45657 1.9336 2.7918 2.49348 2.24248C3.04252 1.68299 3.70696 1.24993 4.44048 0.973484C5.14048 0.702484 5.94048 0.516484 7.11048 0.462484H7.11148ZM16.0915 2.44248C14.9315 2.38948 14.5835 2.37848 11.6465 2.37848C8.70948 2.37848 8.36148 2.38948 7.20148 2.44248C6.12848 2.49148 5.54648 2.67048 5.15848 2.82148C4.64548 3.02148 4.27848 3.25848 3.89348 3.64348C3.52853 3.99854 3.24766 4.43077 3.07148 4.90848C2.92048 5.29648 2.74148 5.87848 2.69248 6.95148C2.63948 8.11148 2.62848 8.45948 2.62848 11.3965C2.62848 14.3335 2.63948 14.6815 2.69248 15.8415C2.74148 16.9145 2.92048 17.4965 3.07148 17.8845C3.24748 18.3615 3.52848 18.7945 3.89348 19.1495C4.24848 19.5145 4.68148 19.7955 5.15848 19.9715C5.54648 20.1225 6.12848 20.3015 7.20148 20.3505C8.36148 20.4035 8.70848 20.4145 11.6465 20.4145C14.5845 20.4145 14.9315 20.4035 16.0915 20.3505C17.1645 20.3015 17.7465 20.1225 18.1345 19.9715C18.6475 19.7715 19.0145 19.5345 19.3995 19.1495C19.7645 18.7945 20.0455 18.3615 20.2215 17.8845C20.3725 17.4965 20.5515 16.9145 20.6005 15.8415C20.6535 14.6815 20.6645 14.3335 20.6645 11.3965C20.6645 8.45948 20.6535 8.11148 20.6005 6.95148C20.5515 5.87848 20.3725 5.29648 20.2215 4.90848C20.0215 4.39548 19.7845 4.02848 19.3995 3.64348C19.0444 3.27856 18.6122 2.99769 18.1345 2.82148C17.7465 2.67048 17.1645 2.49148 16.0915 2.44248ZM10.2415 14.7875C11.0261 15.1141 11.8999 15.1582 12.7134 14.9122C13.527 14.6662 14.2299 14.1454 14.7021 13.4387C15.1743 12.7321 15.3865 11.8834 15.3025 11.0376C15.2185 10.1918 14.8435 9.40146 14.2415 8.80148C13.8577 8.41796 13.3937 8.1243 12.8828 7.94163C12.3719 7.75897 11.8269 7.69184 11.287 7.7451C10.747 7.79836 10.2256 7.97066 9.76029 8.24961C9.29494 8.52857 8.89723 8.90723 8.59579 9.35834C8.29435 9.80944 8.09667 10.3218 8.017 10.8584C7.93733 11.3951 7.97764 11.9428 8.13502 12.462C8.29241 12.9812 8.56297 13.4591 8.92721 13.8612C9.29144 14.2633 9.74031 14.5797 10.2415 14.7875ZM7.64848 7.39848C8.17351 6.87346 8.7968 6.45699 9.48278 6.17285C10.1688 5.8887 10.904 5.74246 11.6465 5.74246C12.389 5.74246 13.1242 5.8887 13.8102 6.17285C14.4962 6.45699 15.1195 6.87346 15.6445 7.39848C16.1695 7.92351 16.586 8.5468 16.8701 9.23278C17.1543 9.91876 17.3005 10.654 17.3005 11.3965C17.3005 12.139 17.1543 12.8742 16.8701 13.5602C16.586 14.2462 16.1695 14.8695 15.6445 15.3945C14.5841 16.4548 13.146 17.0505 11.6465 17.0505C10.1469 17.0505 8.70882 16.4548 7.64848 15.3945C6.58815 14.3341 5.99246 12.896 5.99246 11.3965C5.99246 9.89694 6.58815 8.45882 7.64848 7.39848ZM18.5545 6.58448C18.6846 6.46175 18.7887 6.31417 18.8608 6.15046C18.9328 5.98675 18.9713 5.81025 18.9739 5.63141C18.9765 5.45258 18.9432 5.27503 18.876 5.10929C18.8087 4.94356 18.7089 4.79299 18.5824 4.66652C18.456 4.54005 18.3054 4.44024 18.1397 4.373C17.9739 4.30576 17.7964 4.27246 17.6176 4.27507C17.4387 4.27767 17.2622 4.31614 17.0985 4.38818C16.9348 4.46022 16.7872 4.56438 16.6645 4.69448C16.4258 4.94751 16.2951 5.28361 16.3002 5.63141C16.3053 5.97922 16.4457 6.31136 16.6916 6.55733C16.9376 6.80329 17.2697 6.94371 17.6176 6.94878C17.9654 6.95385 18.3015 6.82317 18.5545 6.58448Z" fill="#024BB9"/>
</svg>
